<svg width="32.000000" height="32.000000" viewBox="0 0 32 32" fill="none" xmlns="http://www.w3.org/2000/svg" xmlns:xlink="http://www.w3.org/1999/xlink">
	<desc>
			Created with Pixso.
	</desc>
	<defs>
		<clipPath id="clip257087_601">
			<rect id="icon-heart-active" width="32.000000" height="32.000000" fill="white" fill-opacity="0"/>
		</clipPath>
	</defs>
	<rect id="icon-heart-active" width="32.000000" height="32.000000" fill="#FFFFFF" fill-opacity="0"/>
	<g clip-path="url(#clip257087_601)">
		<path id="Vector" d="M30 11.75C30 20.5 17.0264 27.5825 16.4736 27.875C16.3281 27.9533 16.1653 27.9943 16 27.9943C15.8347 27.9943 15.6719 27.9533 15.5264 27.875C14.9736 27.5825 2 20.5 2 11.75C2.0022 9.69528 2.81958 7.72539 4.27246 6.27248C5.72534 4.81957 7.69531 4.00232 9.75 4C12.3313 4 14.5913 5.11 16 6.98625C17.4087 5.11 19.6687 4 22.25 4C24.3047 4.00232 26.2747 4.81957 27.7275 6.27248C29.1804 7.72539 29.9978 9.69528 30 11.75Z" fill="#E07B67" fill-opacity="1.000000" fill-rule="nonzero"/>
	</g>
</svg>
