<svg width="32.000000" height="32.000000" viewBox="0 0 32 32" fill="none" xmlns="http://www.w3.org/2000/svg" xmlns:xlink="http://www.w3.org/1999/xlink">
	<desc>
			Created with Pixso.
	</desc>
	<defs>
		<clipPath id="clip257087_594">
			<rect id="icon-search" width="32.000000" height="32.000000" fill="white" fill-opacity="0"/>
		</clipPath>
	</defs>
	<rect id="icon-search" width="32.000000" height="32.000000" fill="#FFFFFF" fill-opacity="0"/>
	<g clip-path="url(#clip257087_594)">
		<path id="Vector" d="M28.7075 27.2925L22.4487 21.035C24.2629 18.8571 25.1675 16.0637 24.9744 13.2359C24.7812 10.4081 23.5054 7.76355 21.4121 5.85245C19.3191 3.94135 16.5696 2.9108 13.7358 2.97519C10.9023 3.03961 8.20239 4.19397 6.19824 6.19821C4.19409 8.20242 3.03955 10.9022 2.97534 13.7359C2.91089 16.5695 3.94141 19.3189 5.85254 21.4122C7.76367 23.5054 10.4082 24.7812 13.2358 24.9743C16.0637 25.1673 18.8572 24.2628 21.0352 22.4487L27.2925 28.7075C27.3855 28.8004 27.4958 28.8741 27.6172 28.9244C27.7385 28.9747 27.8687 29.0005 28 29.0005C28.1313 29.0005 28.2615 28.9747 28.3831 28.9244C28.5044 28.8741 28.6147 28.8004 28.7075 28.7075C28.8005 28.6146 28.8743 28.5043 28.9243 28.3829C28.9746 28.2615 29.0005 28.1314 29.0005 28C29.0005 27.8686 28.9746 27.7385 28.9243 27.6171C28.8743 27.4957 28.8005 27.3854 28.7075 27.2925ZM5 14C5 12.2199 5.52783 10.4799 6.51685 8.99985C7.50586 7.51981 8.91138 6.36624 10.5559 5.68506C12.2004 5.00388 14.01 4.82565 15.7559 5.17291C17.5017 5.52017 19.1052 6.37735 20.364 7.63602C21.6226 8.89468 22.4797 10.4984 22.8271 12.2442C23.1743 13.99 22.9961 15.7996 22.3149 17.4441C21.6338 19.0887 20.4802 20.4943 19.0002 21.4832C17.52 22.4721 15.78 23 14 23C11.614 22.9973 9.32617 22.0483 7.63892 20.361C5.95166 18.6738 5.00269 16.3861 5 14Z" fill="#E07B67" fill-opacity="1.000000" fill-rule="nonzero"/>
	</g>
</svg>
