<svg width="32.000000" height="32.000000" viewBox="0 0 32 32" fill="none" xmlns="http://www.w3.org/2000/svg" xmlns:xlink="http://www.w3.org/1999/xlink">
	<desc>
			Created with Pixso.
	</desc>
	<defs>
		<clipPath id="clip257087_609">
			<rect id="icon-heart" width="32.000000" height="32.000000" fill="white" fill-opacity="0"/>
		</clipPath>
	</defs>
	<rect id="icon-heart" width="32.000000" height="32.000000" fill="#FFFFFF" fill-opacity="0"/>
	<g clip-path="url(#clip257087_609)">
		<path id="Vector" d="M22.25 4C19.6687 4 17.4087 5.11 16 6.98625C14.5913 5.11 12.3313 4 9.75 4C7.69531 4.00232 5.72534 4.81958 4.27246 6.27248C2.81958 7.72539 2.0022 9.69528 2 11.75C2 20.5 14.9736 27.5825 15.5264 27.875C15.6719 27.9533 15.8347 27.9943 16 27.9943C16.1653 27.9943 16.3281 27.9533 16.4736 27.875C17.0264 27.5825 30 20.5 30 11.75C29.9978 9.69528 29.1804 7.72539 27.7275 6.27248C26.2747 4.81958 24.3047 4.00232 22.25 4ZM16 25.85C13.7175 24.52 4 18.4612 4 11.75C4.00195 10.2256 4.6084 8.76424 5.68628 7.68633C6.76416 6.60843 8.22559 6.00198 9.75 6C12.1812 6 14.2224 7.295 15.075 9.375C15.1504 9.55841 15.2786 9.71529 15.4431 9.82568C15.6079 9.93608 15.8018 9.99503 16 9.99503C16.1982 9.99503 16.3921 9.93608 16.5569 9.82568C16.7214 9.71529 16.8496 9.55841 16.925 9.375C17.7776 7.29124 19.8188 6 22.25 6C23.7744 6.00198 25.2358 6.60843 26.3137 7.68633C27.3916 8.76424 27.998 10.2256 28 11.75C28 18.4512 18.28 24.5188 16 25.85Z" fill="#E07B67" fill-opacity="1.000000" fill-rule="nonzero"/>
	</g>
</svg>
